<svg xmlns="http://www.w3.org/2000/svg" viewBox="0 0 448 308"><defs><style>.a{fill:none;}.a,.b,.c,.d{stroke:white;stroke-miterlimit:10;}.a,.b{stroke-width:18px;}.b,.c,.d{fill:white;}.c{stroke-width:0.88px;}.d{stroke-width:0.81px;}</style></defs><path class="a" d="M25,9H423a16,16,0,0,1,16,16V283a16,16,0,0,1-16,16H25A16,16,0,0,1,9,283V25A16,16,0,0,1,25,9Z"/><rect class="a" x="61.5" y="129" width="325" height="90" rx="5"/><path class="a" d="M273.5,322.67a67.3,67.3,0,0,1-19.05,47h-96.9a67.52,67.52,0,0,1-3.64-89.94l104.44.33A67.21,67.21,0,0,1,273.5,322.67Z" transform="translate(-76 -150.67)"/><path class="a" d="M457.5,322.67a67.3,67.3,0,0,1-19.05,47h-96.9a67.52,67.52,0,0,1-3.64-89.94L442,279.67A67.22,67.22,0,0,1,457.5,322.67Z" transform="translate(-76 -150.67)"/><circle class="a" cx="130" cy="174" r="16"/><circle class="a" cx="314" cy="174" r="16"/><circle class="b" cx="114" cy="34" r="1"/><circle class="b" cx="154" cy="34" r="1"/><circle class="b" cx="334" cy="34" r="1"/><circle class="b" cx="294" cy="34" r="1"/><rect class="c" x="61.5" y="245" width="162.5" height="18" rx="4"/><rect class="d" x="246.5" y="245" width="135" height="18" rx="4"/><path class="a" d="M420,213.91H180c-8.83,0-9.75,0-17.5-14.24l-20.5-40H457.92L437.67,200C430.67,213.91,430,213.91,420,213.91Z" transform="translate(-76 -150.67)"/></svg>